<?xml version="1.0" standalone="no"?>
<!DOCTYPE svg PUBLIC "-//W3C//DTD SVG 20010904//EN"
 "http://www.w3.org/TR/2001/REC-SVG-20010904/DTD/svg10.dtd">
<svg version="1.0" xmlns="http://www.w3.org/2000/svg"
 width="577.000000pt" height="577.000000pt" viewBox="0 0 577.000000 577.000000"
 preserveAspectRatio="xMidYMid meet">
<metadata>
Created by potrace 1.14, written by Peter Selinger 2001-2017
</metadata>
<g transform="translate(0.000000,577.000000) scale(0.100000,-0.100000)"
fill="#000000" stroke="none">
<path d="M2468 4744 c-2 -2 -21 -6 -42 -10 -21 -3 -55 -12 -76 -19 -21 -7 -41
-11 -44 -7 -8 7 -226 9 -226 2 0 -3 -11 -7 -25 -8 -14 -1 -25 2 -25 6 0 4 -23
7 -50 7 -28 1 -50 -3 -50 -8 0 -5 -7 -7 -15 -3 -8 3 -15 2 -15 -2 0 -4 -10 -8
-22 -9 -11 -1 -24 -6 -27 -11 -7 -10 -43 -26 -53 -24 -5 1 -8 -3 -8 -9 0 -5
-4 -7 -10 -4 -5 3 -10 1 -10 -5 0 -6 -4 -9 -9 -5 -5 3 -12 1 -16 -5 -4 -6 -10
-8 -15 -5 -5 3 -14 -1 -22 -8 -7 -7 -15 -14 -18 -15 -32 -7 -124 -50 -225
-105 -75 -41 -142 -115 -152 -167 -1 -8 -4 -63 -7 -122 -3 -78 0 -114 10 -134
8 -14 12 -30 9 -34 -3 -5 -1 -11 4 -15 6 -3 8 -11 5 -18 -4 -13 14 -36 55 -69
14 -12 21 -14 21 -5 0 6 10 -5 22 -25 20 -35 39 -49 62 -47 5 0 12 -4 15 -10
4 -5 23 -11 44 -13 20 -1 37 -5 37 -9 0 -4 11 -10 25 -13 14 -4 23 -11 20 -15
-3 -5 4 -7 15 -4 12 3 20 0 20 -7 0 -10 3 -10 15 0 13 11 14 10 9 -3 -4 -11 0
-14 13 -12 10 2 22 4 26 4 5 1 5 7 1 14 -4 6 4 0 19 -15 16 -17 32 -25 41 -22
9 3 16 1 16 -6 0 -7 9 -9 23 -6 12 3 16 3 10 0 -7 -3 -13 -10 -13 -15 0 -6 6
-9 13 -8 22 4 107 -42 107 -57 0 -9 9 -18 21 -21 14 -4 19 -12 16 -24 -3 -11
0 -19 7 -19 6 0 13 -12 14 -27 1 -16 7 -30 12 -31 6 -2 8 -8 4 -13 -3 -5 -1
-9 4 -9 6 0 8 -9 5 -20 -3 -11 -1 -20 5 -20 5 0 15 -13 22 -30 7 -16 18 -30
24 -30 6 0 4 -5 -4 -10 -12 -8 -11 -10 7 -10 17 0 21 -5 18 -20 -2 -13 2 -23
11 -27 13 -5 13 -7 2 -14 -10 -6 -8 -9 7 -9 17 0 17 -2 5 -10 -13 -8 -12 -10
3 -10 13 0 17 -6 15 -22 -2 -16 2 -22 11 -20 12 3 12 1 0 -14 -9 -12 -9 -15
-1 -10 8 5 12 0 12 -18 0 -13 7 -31 15 -39 8 -8 11 -17 8 -21 -4 -3 0 -6 8 -6
11 0 11 -2 -1 -10 -11 -7 -11 -10 -2 -10 7 0 10 -4 7 -10 -3 -5 2 -10 12 -11
16 0 16 -1 -1 -8 -18 -7 -18 -8 -2 -14 9 -4 15 -11 12 -16 -4 -5 1 -16 9 -24
8 -9 15 -21 15 -27 0 -6 5 -8 13 -4 8 5 8 2 -2 -9 -10 -13 -10 -17 -1 -17 10
0 10 -3 0 -15 -7 -9 -10 -18 -6 -22 3 -3 6 -2 6 4 0 5 7 10 16 10 12 0 15 -7
11 -31 -3 -17 -3 -25 0 -18 2 6 9 12 14 12 6 0 5 -8 -1 -20 -8 -16 -8 -20 4
-20 10 0 13 -6 9 -17 -5 -12 -3 -14 7 -8 10 6 11 4 4 -6 -11 -18 -14 -40 -5
-35 4 3 13 -4 21 -14 8 -10 18 -16 24 -13 6 4 5 -1 -3 -10 -12 -15 -9 -21 10
-19 4 1 4 -8 1 -20 -4 -15 -2 -19 7 -13 10 6 11 3 2 -13 -9 -18 -8 -19 10 -15
20 5 20 4 8 -18 -11 -22 -11 -23 5 -10 14 12 16 12 10 -4 -5 -11 -4 -16 3 -12
5 3 10 0 10 -7 0 -9 -7 -12 -16 -8 -9 3 -2 -6 14 -21 30 -26 30 -26 5 -20 -25
5 -25 5 -4 -10 20 -15 28 -65 26 -149 -1 -10 4 -18 10 -18 7 0 7 -4 -1 -13 -6
-8 -8 -17 -5 -20 4 -3 8 -28 10 -54 1 -26 6 -73 10 -103 10 -87 11 -203 1
-230 -5 -14 -19 -59 -31 -100 -12 -41 -25 -73 -30 -70 -4 3 -12 -3 -18 -13 -8
-16 -43 -36 -74 -42 -6 -2 -33 -15 -60 -29 -27 -14 -55 -26 -62 -26 -7 0 -10
-4 -7 -10 3 -5 -3 -10 -13 -10 -15 0 -19 -5 -15 -19 4 -14 12 -19 31 -17 15 1
33 -2 40 -7 8 -6 12 -6 12 2 0 15 27 14 36 -1 4 -7 3 -8 -4 -4 -7 4 -12 1 -12
-8 0 -11 12 -14 51 -13 27 0 52 4 55 9 3 4 16 8 29 8 14 0 39 14 58 34 24 23
54 40 94 51 58 16 61 18 82 69 11 28 21 58 21 66 0 8 7 29 16 45 9 17 18 46
21 65 3 19 13 54 23 77 10 23 15 45 12 49 -4 4 -1 4 6 -1 10 -5 13 -2 10 11
-2 11 3 25 12 32 10 9 10 11 1 6 -9 -5 -12 -3 -7 4 5 9 13 9 28 1 18 -10 20
-9 15 5 -4 11 -1 16 9 16 9 0 14 -6 11 -13 -5 -13 11 -30 31 -35 10 -2 10 3 2
18 -9 16 -8 18 5 14 8 -4 15 -11 15 -18 0 -7 4 -6 9 2 4 8 11 14 14 15 10 3
39 -42 34 -51 -3 -4 6 -8 20 -9 19 -1 22 1 12 8 -8 5 -9 9 -3 9 16 0 35 -25
26 -36 -4 -4 1 -2 11 6 10 7 17 9 15 4 -1 -5 3 -19 10 -31 26 -46 -22 -180
-77 -217 -41 -28 -56 -55 -35 -63 9 -3 20 0 24 7 7 11 12 10 25 -3 15 -16 29
-21 47 -18 4 0 27 -9 50 -21 45 -24 64 -30 88 -29 44 2 64 12 66 34 3 30 18
57 30 57 13 0 18 -12 15 -32 0 -5 3 -8 9 -8 5 0 10 -8 10 -19 0 -13 7 -18 25
-19 14 0 24 3 21 5 -3 3 -1 15 4 27 4 13 4 29 0 36 -5 9 -4 20 3 29 10 12 9
13 -2 6 -10 -5 -12 -4 -7 3 9 14 36 16 36 2 0 -5 7 -6 17 -3 11 4 14 3 9 -5
-4 -7 -2 -12 3 -12 6 0 11 6 11 13 0 8 3 7 9 -3 6 -8 7 -19 3 -25 -3 -5 2 -4
11 4 16 12 17 12 11 -5 -4 -10 -4 -16 0 -12 10 8 36 -14 29 -24 -2 -5 3 -8 12
-8 9 0 13 -4 10 -10 -3 -5 -1 -10 5 -10 6 0 8 -5 4 -12 -5 -8 -1 -9 12 -5 17
6 18 6 2 -6 -15 -12 -14 -15 17 -25 31 -12 56 -42 34 -42 -6 0 -7 -5 -4 -10 3
-6 0 -13 -9 -16 -9 -4 -13 -14 -10 -32 9 -49 20 -54 116 -50 58 3 98 0 118 -9
17 -7 34 -12 38 -12 4 1 9 0 12 -1 3 -1 30 -3 60 -5 30 -2 71 -7 90 -10 19 -4
47 -8 63 -9 15 0 27 -4 27 -7 0 -3 17 -5 38 -4 20 1 42 0 47 -4 18 -10 35 -9
35 2 0 8 3 7 9 -1 4 -8 11 -13 15 -13 3 1 7 1 9 0 1 0 22 -3 47 -5 25 -2 53
-6 63 -8 9 -2 17 -1 17 3 0 3 20 6 45 5 25 -1 48 3 51 8 3 5 12 4 20 -3 10 -8
14 -8 14 0 0 13 22 10 32 -4 5 -6 8 -5 8 3 0 7 14 12 35 12 21 0 35 -5 35 -12
0 -8 3 -9 8 -3 9 13 28 18 74 19 21 1 38 4 38 8 0 4 9 5 20 3 11 -2 22 0 25 5
3 5 18 5 35 0 20 -6 28 -5 24 1 -3 6 0 10 7 8 25 -3 40 1 35 9 -3 4 8 7 25 6
16 -1 26 2 23 7 -3 5 -10 6 -16 3 -7 -4 -8 -2 -4 5 4 6 11 9 16 6 5 -3 11 -1
15 5 4 6 10 8 15 5 4 -3 6 5 2 17 -4 15 -2 19 7 13 10 -5 12 -1 7 16 -3 13 -3
18 0 12 10 -22 26 -14 22 11 -1 13 4 31 12 42 8 10 10 15 3 11 -7 -5 -9 0 -6
13 3 11 10 20 15 20 6 0 5 7 -2 15 -10 12 -10 15 0 15 8 0 11 10 8 30 -3 17 0
30 5 30 5 0 7 7 4 15 -4 8 -1 17 5 21 7 4 8 3 4 -4 -4 -7 -2 -12 3 -12 14 0
14 17 1 25 -8 5 -7 12 2 23 11 13 11 14 -2 7 -12 -7 -13 -6 -4 6 6 8 10 22 8
32 -1 12 2 17 11 13 8 -3 17 -1 20 4 4 6 1 10 -6 10 -7 0 -4 7 7 16 10 8 14
13 8 10 -12 -6 -24 14 -24 42 0 13 3 13 16 -4 15 -18 15 -18 10 0 -5 15 -4 16
7 8 10 -8 13 -6 14 9 1 13 -2 17 -10 12 -7 -4 -4 5 6 20 10 16 13 27 6 27 -6
0 -9 6 -6 13 2 6 0 21 -6 32 -9 18 -9 19 7 6 9 -8 20 -11 23 -7 4 4 1 11 -7
16 -13 8 -8 14 11 12 3 -1 6 5 6 13 0 8 -5 11 -10 8 -6 -4 -7 -1 -1 8 15 24
13 38 -4 32 -16 -4 -16 -3 0 9 11 9 14 19 8 28 -6 10 -3 21 8 35 16 19 16 19
-1 6 -22 -17 -34 -7 -17 14 10 12 9 15 -6 15 -15 0 -16 2 -5 9 11 7 10 10 -5
13 -18 4 -17 5 4 16 12 7 21 9 20 5 -2 -4 1 -9 6 -11 6 -1 11 4 12 12 1 9 -3
14 -8 13 -6 -1 -13 4 -16 12 -3 10 0 11 9 5 12 -7 12 -5 0 9 -9 11 -10 17 -2
17 18 0 12 20 -6 21 -11 0 -13 3 -5 6 6 2 9 10 6 15 -4 6 -2 8 3 5 6 -4 19 3
29 15 11 12 13 18 7 14 -9 -5 -13 0 -14 16 -1 17 -3 18 -6 6 -5 -19 -33 -25
-33 -7 0 5 6 7 13 3 8 -5 8 -2 -2 9 -7 9 -11 18 -7 18 24 5 33 4 44 -4 9 -7
11 -6 6 7 -3 9 -10 16 -14 16 -5 0 -6 9 -3 20 3 11 1 20 -5 20 -6 0 -9 -11 -7
-25 2 -21 0 -23 -12 -13 -11 9 -11 13 -1 19 10 7 10 9 -2 9 -12 0 -12 2 -2 8
7 5 10 16 6 25 -3 9 -2 17 4 17 6 0 12 -6 15 -12 3 -7 4 -3 4 9 -1 12 -5 19
-9 17 -11 -7 -10 4 4 29 11 21 10 21 -8 7 -18 -15 -18 -14 0 14 10 16 12 25 5
21 -9 -6 -10 -3 -5 10 4 13 -2 27 -20 46 -16 17 -22 29 -15 33 6 4 11 12 11
17 0 6 -4 7 -10 4 -15 -9 -12 6 6 26 14 16 13 19 -13 45 -15 15 -20 22 -10 14
15 -11 17 -11 12 3 -4 8 -16 17 -27 20 -23 6 -15 27 10 27 15 0 15 -2 2 -10
-12 -7 -10 -9 7 -8 24 2 20 28 -4 28 -13 0 -13 3 -3 15 10 12 9 16 -4 21 -9 3
-16 10 -16 16 0 5 4 6 10 3 6 -3 7 1 4 10 -5 11 -10 13 -19 5 -9 -8 -11 -4 -7
15 2 15 0 25 -7 25 -7 0 -10 -4 -6 -9 3 -5 2 -12 -3 -15 -11 -7 -12 26 -1 40
5 6 3 11 -6 12 -8 1 -22 3 -30 4 -8 1 -12 5 -9 10 3 4 0 8 -6 8 -6 0 -8 5 -5
10 3 6 -1 10 -10 10 -9 0 -13 4 -10 10 3 6 -1 7 -9 4 -19 -7 -21 7 -3 25 10
11 9 12 -2 6 -11 -6 -13 -3 -9 13 4 15 2 22 -9 22 -9 0 -11 5 -7 13 5 8 2 8
-9 -2 -17 -13 -23 -6 -18 22 0 4 -7 7 -16 7 -15 0 -16 2 -3 10 12 8 10 10 -10
11 -14 1 -31 1 -37 0 -7 -1 -13 8 -13 19 0 14 -4 19 -12 14 -8 -5 -9 -2 -5 9
4 11 -1 21 -16 28 -12 7 -28 19 -35 28 -10 14 -11 13 -5 -4 7 -19 6 -19 -11
-2 -10 9 -22 14 -28 11 -7 -4 -8 -2 -4 5 4 6 12 9 17 6 5 -4 9 -1 9 5 0 6 5 8
12 4 7 -4 8 -3 4 5 -4 6 -12 9 -17 6 -5 -4 -9 -1 -9 6 0 8 -4 8 -15 -1 -12
-10 -16 -8 -25 14 -5 14 -12 26 -14 26 -3 0 -3 -7 0 -15 4 -8 3 -15 0 -15 -4
0 -12 13 -17 30 -6 16 -15 27 -20 24 -5 -3 -9 2 -9 11 0 12 -4 14 -19 5 -17
-8 -19 -7 -16 16 2 18 -1 22 -8 15 -6 -6 -17 -11 -25 -11 -12 0 -12 3 -1 17 8
9 9 14 3 10 -7 -4 -15 0 -18 9 -5 12 -2 15 10 10 14 -5 15 -4 5 8 -12 14 -40
14 -63 0 -6 -4 -8 -3 -4 4 3 6 -3 13 -14 17 -18 6 -18 8 -5 21 8 9 15 23 15
32 0 13 -2 13 -15 -4 -13 -16 -14 -16 -9 -1 6 18 5 19 -38 21 -15 1 -31 6 -35
10 -4 5 -3 7 2 3 6 -3 17 -1 25 5 12 8 12 9 -2 4 -10 -3 -18 0 -18 6 0 7 -7 3
-15 -8 -8 -10 -15 -14 -14 -9 3 22 -2 27 -16 15 -13 -11 -18 -10 -28 4 -12 16
-13 16 -13 -3 0 -11 4 -17 8 -15 4 3 8 0 8 -5 0 -19 -20 -12 -45 15 -25 27
-34 51 -15 39 6 -3 10 -4 10 -1 0 3 -10 10 -22 17 -17 9 -20 9 -16 -2 4 -9 -3
-14 -18 -15 -15 -1 -21 2 -17 10 3 6 -4 2 -18 -9 -18 -15 -20 -16 -10 -2 10
12 10 17 2 17 -7 0 -10 4 -7 8 3 5 -5 8 -17 7 -13 -2 -21 -8 -19 -16 1 -8 -12
3 -30 23 -28 31 -36 35 -52 26 -14 -8 -17 -8 -12 1 5 7 -1 11 -13 11 -12 0
-21 5 -21 12 0 6 -3 8 -7 5 -3 -4 -12 -2 -19 4 -8 7 -14 6 -20 -2 -5 -8 -3 -9
6 -4 9 6 11 4 5 -5 -5 -8 -4 -11 3 -6 6 3 13 2 16 -3 5 -8 -15 -8 -34 -1 -3 1
-9 2 -13 1 -5 -1 -5 4 -1 10 5 9 0 10 -15 6 -18 -4 -20 -3 -10 9 9 11 9 14 0
14 -7 0 -9 5 -5 12 4 7 3 8 -5 4 -6 -4 -9 -11 -6 -16 3 -5 1 -12 -5 -15 -6 -4
-10 -3 -9 2 1 4 1 15 0 23 -1 13 -2 13 -11 0 -8 -12 -10 -12 -10 -1 0 10 -3
11 -14 2 -12 -10 -17 -8 -26 8 -9 18 -14 19 -32 10 -12 -7 -18 -7 -14 -1 10
17 -21 41 -46 35 -18 -5 -20 -3 -14 12 7 18 6 18 -14 0 -11 -10 -21 -15 -21
-12 -1 4 -2 12 -3 19 -1 12 -66 31 -66 19 0 -3 -5 1 -10 9 -7 11 -10 12 -10 2
0 -10 -4 -10 -15 2 -9 8 -23 12 -33 9 -14 -5 -14 -3 2 9 18 14 17 15 -12 10
-20 -2 -32 0 -32 7 0 6 -9 11 -21 11 -16 0 -20 4 -15 18 5 14 4 14 -9 -2 -14
-19 -21 -11 -16 17 1 5 -3 6 -8 3 -5 -4 -13 -2 -16 4 -5 8 -11 7 -21 -1 -11
-9 -14 -7 -14 10 0 12 -4 19 -10 16 -5 -3 -10 -1 -10 5 0 6 -5 8 -12 4 -8 -5
-9 -2 -4 11 5 15 4 16 -9 5 -12 -10 -15 -10 -15 4 0 10 -4 14 -10 11 -5 -3
-10 -1 -10 5 0 6 -4 9 -9 5 -5 -3 -15 1 -23 8 -14 14 -21 17 -39 17 -6 0 -8 7
-5 16 4 9 2 13 -5 8 -7 -4 -21 4 -31 17 -11 13 -16 17 -12 9 7 -13 6 -13 -12
0 -45 33 -63 54 -57 63 3 6 1 7 -5 3 -6 -3 -14 -1 -17 4 -4 6 -18 15 -32 21
-14 5 -21 14 -17 20 4 8 -1 9 -16 4 -12 -4 -20 -3 -18 1 3 5 -3 17 -14 27 -10
9 -18 14 -18 11 0 -3 -13 8 -29 25 -15 16 -31 28 -34 24 -4 -3 -9 2 -13 11 -3
9 -10 13 -15 10 -5 -3 -12 2 -15 10 -3 9 -11 16 -18 16 -6 0 -24 11 -40 25
-16 13 -37 27 -47 30 -11 4 -19 10 -19 15 0 4 -9 10 -20 13 -12 3 -27 22 -36
44 -42 106 -68 134 -129 139 -18 1 -35 0 -37 -2z m897 -674 c3 -5 1 -10 -4
-10 -6 0 -11 5 -11 10 0 6 2 10 4 10 3 0 8 -4 11 -10z m340 -140 c3 -5 1 -10
-4 -10 -6 0 -11 5 -11 10 0 6 2 10 4 10 3 0 8 -4 11 -10z m321 -126 c1 -9 0
-13 -4 -10 -3 4 -7 14 -8 22 -1 9 0 13 4 10 3 -4 7 -14 8 -22z m277 -89 c-3
-9 -8 -14 -10 -11 -3 3 -2 9 2 15 9 16 15 13 8 -4z m87 -27 c0 -4 -4 -8 -9 -8
-6 0 -12 4 -15 8 -3 5 1 9 9 9 8 0 15 -4 15 -9z m680 -793 c0 -12 -19 -12 -23
0 -4 9 -1 12 9 8 7 -3 14 -7 14 -8z m-2726 -51 c5 -14 4 -15 -9 -4 -17 14 -19
20 -6 20 5 0 12 -7 15 -16z m2746 -74 c0 -5 -4 -10 -10 -10 -5 0 -10 5 -10 10
0 6 5 10 10 10 6 0 10 -4 10 -10z"/>
<path d="M3770 3925 c0 -5 5 -17 10 -25 5 -8 10 -10 10 -5 0 6 -5 17 -10 25
-5 8 -10 11 -10 5z"/>
<path d="M4050 3811 c0 -6 4 -12 8 -15 5 -3 9 1 9 9 0 8 -4 15 -9 15 -4 0 -8
-4 -8 -9z"/>
<path d="M4230 3730 c0 -5 5 -10 11 -10 5 0 7 5 4 10 -3 6 -8 10 -11 10 -2 0
-4 -4 -4 -10z"/>
<path d="M4470 3639 c0 -5 5 -7 10 -4 6 3 10 8 10 11 0 2 -4 4 -10 4 -5 0 -10
-5 -10 -11z"/>
<path d="M4606 3522 c-3 -5 1 -9 9 -9 8 0 12 4 9 9 -3 4 -7 8 -9 8 -2 0 -6 -4
-9 -8z"/>
<path d="M4786 3342 c-3 -5 1 -9 9 -9 8 0 15 4 15 9 0 4 -4 8 -9 8 -6 0 -12
-4 -15 -8z"/>
<path d="M2120 3289 c0 -5 5 -7 10 -4 6 3 10 8 10 11 0 2 -4 4 -10 4 -5 0 -10
-5 -10 -11z"/>
<path d="M4955 3160 c3 -5 8 -10 11 -10 2 0 4 5 4 10 0 6 -5 10 -11 10 -5 0
-7 -4 -4 -10z"/>
<path d="M5060 2825 c0 -2 7 -8 15 -15 12 -10 15 -10 15 2 0 8 -7 15 -15 15
-8 0 -15 -1 -15 -2z"/>
</g>
</svg>
